<svg xmlns="http://www.w3.org/2000/svg" xmlns:xlink="http://www.w3.org/1999/xlink" viewBox="0 0 2847.58 43.06"><defs><linearGradient id="linear-gradient" x1="-9308.32" y1="-1556.22" x2="-7735.58" y2="-2439.54" gradientTransform="rotate(-67.97 -1589.09 -7234.59)" gradientUnits="userSpaceOnUse"><stop offset=".58" stop-color="#911456"/><stop offset=".71" stop-color="#a81863"/><stop offset=".99" stop-color="#e22284"/></linearGradient><linearGradient id="linear-gradient-2" x1="-8639.37" y1="-1328.01" x2="-7440.3" y2="-2001.46" gradientTransform="rotate(-67.97 -1589.09 -7234.59)" gradientUnits="userSpaceOnUse"><stop offset="0" stop-color="#911456"/><stop offset=".38" stop-color="#b51a6b"/><stop offset=".78" stop-color="#d6207d"/><stop offset=".99" stop-color="#e22284"/></linearGradient><linearGradient id="linear-gradient-3" x1="-6148.89" y1="1100.93" x2="-6879.25" y2="-1050.53" gradientTransform="rotate(-67.97 -1589.09 -7234.59)" gradientUnits="userSpaceOnUse"><stop offset=".58" stop-color="#809829"/><stop offset=".59" stop-color="#839c28"/><stop offset=".66" stop-color="#94af26"/><stop offset=".73" stop-color="#9fbd24"/><stop offset=".82" stop-color="#a6c522"/><stop offset=".99" stop-color="#a8c722"/></linearGradient><linearGradient id="linear-gradient-4" x1="-6166.45" y1="1115.49" x2="-6898.94" y2="-1042.22" gradientTransform="rotate(-67.97 -1589.09 -7234.59)" gradientUnits="userSpaceOnUse"><stop offset="0" stop-color="#809829"/><stop offset=".37" stop-color="#95b125"/><stop offset=".72" stop-color="#a3c123"/><stop offset=".99" stop-color="#a8c722"/></linearGradient><linearGradient id="linear-gradient-5" x1="-7329.78" y1="-1599.77" x2="-4736.77" y2="-1599.77" gradientTransform="rotate(-67.97 -1589.09 -7234.59)" gradientUnits="userSpaceOnUse"><stop offset="0" stop-color="#008596"/><stop offset=".13" stop-color="#008c9e"/><stop offset=".69" stop-color="#01a9bf"/><stop offset=".99" stop-color="#01b4cb"/></linearGradient><linearGradient id="linear-gradient-6" x1="-8620.28" y1="-1354.99" x2="-7445.05" y2="-2015.05" xlink:href="#linear-gradient-2"/><linearGradient id="linear-gradient-7" x1="-7342.31" y1="-2090.04" x2="-4814.03" y2="-2090.04" xlink:href="#linear-gradient-5"/><linearGradient id="linear-gradient-8" x1="-7342.31" y1="-2090.04" x2="-4814.03" y2="-2090.04" xlink:href="#linear-gradient-2"/><linearGradient id="linear-gradient-9" x1="-8663.08" y1="-1150.37" x2="-7382.41" y2="-1869.65" xlink:href="#linear-gradient-2"/><linearGradient id="linear-gradient-10" x1="-7338.03" y1="-1925.35" x2="-4809.96" y2="-1925.35" xlink:href="#linear-gradient-5"/><linearGradient id="linear-gradient-11" x1="-7338.03" y1="-1925.35" x2="-4809.96" y2="-1925.35" xlink:href="#linear-gradient-2"/><linearGradient id="linear-gradient-12" x1="-6185.02" y1="1113.11" x2="-6915.46" y2="-1038.59" xlink:href="#linear-gradient-4"/><linearGradient id="linear-gradient-13" x1="-7325.94" y1="-1137.95" x2="-4696.72" y2="-1137.95" xlink:href="#linear-gradient-5"/><linearGradient id="linear-gradient-14" x1="-6947.21" y1="1169.96" x2="-6947.21" y2="-1226.17" xlink:href="#linear-gradient-4"/><linearGradient id="linear-gradient-15" x1="-6947.21" y1="1169.96" x2="-6947.21" y2="-1226.17" xlink:href="#linear-gradient-5"/><style>.cls-2,.cls-7{fill:#686867}.cls-7{opacity:.19}</style></defs><path d="M960.76 0H0v43.06h1012.69q15.22-7.68 30.79-15Q1001.09 14.84 960.76 0z" fill="url(#linear-gradient)"/><path class="cls-2" d="M1094.41 43.06q-25.8-7.23-50.93-15-15.57 7.36-30.79 15z"/><path d="M1094.41 43.06q-25.8-7.23-50.93-15-15.57 7.36-30.79 15z" fill="url(#linear-gradient-2)"/><path d="M1094.41 43.06q-25.8-7.23-50.93-15-15.57 7.36-30.79 15z" opacity=".32" fill="#686867"/><path d="M2847.58 43.06V0h-337.87q48.78 20.28 93.89 43.06z" fill="url(#linear-gradient-3)"/><path class="cls-2" d="M2603.6 43.06Q2558.51 20.32 2509.71 0h-180.48q-64.93 23.85-133.6 43.06z"/><path d="M2603.6 43.06Q2558.51 20.32 2509.71 0h-180.48q-64.93 23.85-133.6 43.06z" fill="url(#linear-gradient-4)"/><path class="cls-7" d="M2603.6 43.06Q2558.51 20.32 2509.71 0h-180.48q-64.93 23.85-133.6 43.06z"/><path class="cls-2" d="M1787.54 43.06Q1789 21.55 1792.38 0H1320.3q16.17 21.24 30.29 43.06z"/><path d="M1787.54 43.06Q1789 21.55 1792.38 0H1320.3q16.17 21.24 30.29 43.06z" fill="url(#linear-gradient-5)"/><path d="M1787.54 43.06Q1789 21.55 1792.38 0H1320.3q16.17 21.24 30.29 43.06z" opacity=".12" fill="#686867"/><path d="M960.76 0q40.32 14.82 82.72 28 31-14.64 63.28-28z" fill="url(#linear-gradient-6)"/><path d="M960.76 0q40.32 14.82 82.72 28 31-14.64 63.28-28z" fill="url(#linear-gradient-7)"/><path d="M960.76 0q40.32 14.82 82.72 28 31-14.64 63.28-28z" fill="url(#linear-gradient-8)" opacity=".54"/><path class="cls-2" d="M1350.59 43.06Q1336.45 21.25 1320.3 0h-213.54q-32.27 13.4-63.28 28 25.13 7.81 50.93 15z"/><path d="M1350.59 43.06Q1336.45 21.25 1320.3 0h-213.54q-32.27 13.4-63.28 28 25.13 7.81 50.93 15z" fill="url(#linear-gradient-9)"/><path d="M1350.59 43.06Q1336.45 21.25 1320.3 0h-213.54q-32.27 13.4-63.28 28 25.13 7.81 50.93 15z" fill="url(#linear-gradient-10)"/><path d="M1350.59 43.06Q1336.45 21.25 1320.3 0h-213.54q-32.27 13.4-63.28 28 25.13 7.81 50.93 15z" fill="url(#linear-gradient-11)" opacity=".54"/><path class="cls-2" d="M2195.63 43.06q68.55-19.18 133.6-43.06h-536.85q-3.39 21.56-4.84 43.06z"/><path d="M2195.63 43.06q68.55-19.18 133.6-43.06h-536.85q-3.39 21.56-4.84 43.06z" fill="url(#linear-gradient-12)"/><path d="M2195.63 43.06q68.55-19.18 133.6-43.06h-536.85q-3.39 21.56-4.84 43.06z" fill="url(#linear-gradient-13)"/><path d="M2195.63 43.06q68.55-19.18 133.6-43.06h-536.85q-3.39 21.56-4.84 43.06z" fill="url(#linear-gradient-14)"/><path d="M2195.63 43.06q68.55-19.18 133.6-43.06h-536.85q-3.39 21.56-4.84 43.06z" opacity=".51" fill="url(#linear-gradient-15)"/><path class="cls-7" d="M2195.63 43.06q68.55-19.18 133.6-43.06h-536.85q-3.39 21.56-4.84 43.06z"/></svg>