<svg viewBox="0 0 144 50" xmlns="http://www.w3.org/2000/svg"><path fill="#FEC600" d="M20.907 45.68l-.54-.055 1.56.087.134.005c11.927.637 23.445.972 35.559 1.324-8.385-.016-16.773-.217-25.168-.28-4.196-.06-9.024-.231-13.628-.412l-6.657-.241-3.014-.09c-.946.002-1.89-.047-2.83-.147l-.414-.065a6.787 6.787 0 01-1.677-.596 4.805 4.805 0 01-1.492-1.23 5.156 5.156 0 01-.514-.81 6.452 6.452 0 01-.344-.839 9.586 9.586 0 01-.359-1.624c-.075-.533-.12-1.016-.172-1.498l-.15-1.465c-.1-.977-.189-1.955-.276-2.934A241.463 241.463 0 01.17 23.048a217.376 217.376 0 01-.145-11.793c.017-.991.05-2.002.162-3.033.101-1.056.312-2.1.63-3.113A9.638 9.638 0 012.34 2.15c.09-.119.185-.232.286-.34.104-.112.2-.23.308-.334.214-.206.442-.398.68-.576l.369-.26.377-.224c.25-.146-.79 1.006-1.454 1.788A8.702 8.702 0 001.453 4.8a13.247 13.247 0 00-.666 2.83c-.12.941-.19 1.888-.208 2.837-.03 1.873-.044 3.729-.03 5.591.015 1.863.049 3.724.112 5.577.116 3.704.332 7.377.632 10.943.152 1.797.325 3.562.519 5.295.104.87.191 1.715.315 2.587.098.905.37 1.783.802 2.586a3.934 3.934 0 001.737 1.564 6.92 6.92 0 002.168.56c.727.08 1.444.094 2.15.113l2.126.063 5.498.2 4.3.135zm98.95.133c-5.613.212-10.911.464-17.167.459a2617.63 2617.63 0 01-18.606-.265l25.87-.132 9.904-.062zm-42.589.17c-7.736-.03-15.488-.134-23.25-.274 11.03.275 22.09.476 33.276.625l-1.37.012c-11.754.095-24.534-.086-37.833-.482-6.648-.208-13.427-.454-20.271-.76-3.423-.145-6.861-.316-10.309-.483l-5.177-.265-2.593-.135-1.296-.068a19.56 19.56 0 01-1.245-.099c.4.041.8.063 1.211.08l1.255.048 2.527.092c14.876.516 29.759.943 44.637 1.206 9.049.215 18.115.374 27.254.502h-6.816zm-27.844 1.99c5.64.029 12.82.273 20.072.458l-11.685-.16-8.072-.276-.315-.022zm23.236 1.825l2.515-.073 2.372.119-1.529.096-3.358-.142zm49.555-.21l.31-.003 10.973-.147c-7.552.161-15.11.31-23.057.31-1.677-.009-4.201.11-5.878.143-8.509.188-17.74.119-27.016-.103l2.013-.068c13.824.077 27.78.046 42.655-.133zM6.614 44.767c.562.078 1.128.125 1.696.14l1.696.065 3.391.121c2.262.084 4.504.157 6.728.22 4.458.14 8.863.241 13.195.342 17.584.703 34.553 1.072 49.794.966 6.709-.063 15.93 0 25.149-.058 9.218-.058 18.44-.222 25.143-.628a305.768 305.768 0 00-4.155-.017l2.864-.113 1.364-.06c.433-.022.838-.051 1.21-.092a8.079 8.079 0 001.6-.227c.201-.056.398-.127.589-.212a2.69 2.69 0 00.426-.266l.082-.075a.334.334 0 00.049-.043l.068-.068c.092-.086.179-.188.269-.282.174-.2.349-.405.506-.625a7.44 7.44 0 00.797-1.356c.095-.216.176-.437.242-.664.027-.106.056-.21.07-.304a.982.982 0 00.025-.142v-.159l.186-2.013.155-2.017.129-2.025c.31-5.405.385-10.844.392-16.317 0-2.736 0-5.48-.029-8.236V8.423a.721.721 0 000-.085v-.304l-.026-.15-.022-.15c0-.047-.027-.096-.036-.144a3.465 3.465 0 00-2.701-2.558 1.775 1.775 0 00-.299-.043l-.152-.015h-.206l-1.042-.038-4.187-.148c-2.793-.108-5.604-.178-8.424-.265-3.35-.109-5.865 0-9.206-.084-3.392-.068-6.726-.104-10.047-.153-.012 0 .029.022.12.034-13.792-.125-27.376-.058-41.67.128-6.709.06-13.425.036-20.129.056-2.517 0-2.517-.181-4.198-.225-6.711-.224-11.746-.4-19.295-.511V3.62c-1.158.015-2.197 0-3.048 0 3.612-.52 12.807-.692 3.07-1.078l1.49-.044h.162c2.287-.072 3.673-.166 5.044-.32h-4.426c.279-.066.46-.133.308-.198l.387-.037h1.212a3.32 3.32 0 00.484-.108c3.848-.203 9.912-.311 8.746-.51-.896-.096-3.709 0-6.902.051a19.074 19.074 0 00-.642-.046c4.194-.048 0-.33 2.515-.378 3.353 0 6.703-.053 10.057-.06C50.836.86 62.347.753 75.764.625L77.532.61a847.304 847.304 0 0119.01.066l-1.273.048c5.124.08 10.258.154 15.392.178 3.15 0 6.3.044 9.449.066 3.15.021 6.333.091 9.533.156l4.82.13 2.422.068c.187 0 .455.027.688.044a6.608 6.608 0 011.432.296c.242.068.455.17.683.256a7.141 7.141 0 014.223 5.652c.034.241.036.494.05.743.015.248 0 .42 0 .632 0 .829.006 1.66.018 2.495.034 6.998.063 13.897-.213 20.835-.066 1.732-.165 3.47-.279 5.212-.063.871-.126 1.742-.204 2.616l-.118 1.313-.015.164c0 .05 0 .108-.022.183-.019.138-.034.278-.06.41a7.455 7.455 0 01-.19.787c-.304.97-.751 1.891-1.327 2.732a11.347 11.347 0 01-1.434 1.74c-.046.045-.085.086-.14.137l-.168.15a4.5 4.5 0 01-.349.28 7.11 7.11 0 01-3.06 1.228 19.18 19.18 0 01-2.892.214 21.755 21.755 0 002.345-.15 8.725 8.725 0 002.536-.682 6.224 6.224 0 001.231-.755c.34-.288.658-.6.95-.937a12.026 12.026 0 001.427-2.034 9.308 9.308 0 00.945-2.389c.046-.222.092-.444.119-.678l.021-.169v-.14l.025-.275c.031-.371.065-.74.099-1.112.068-.741.114-1.484.174-2.23.06-.746.097-1.491.148-2.24.18-2.69.293-5.366.356-7.962-.092 2.693-.2 5.34-.356 7.963-.048.646-.094 1.293-.143 1.93l-.167 1.945-.196 1.943c0 .144-.044.36-.073.56-.029.2-.075.39-.126.576-.1.367-.222.728-.368 1.079a11.32 11.32 0 01-2.423 3.552c-.065.065-.121.125-.196.193l-.242.205c-.158.135-.33.241-.485.37a6.26 6.26 0 01-1.061.547 8.656 8.656 0 01-2.127.528c-.645.083-1.294.132-1.943.148l-1.82.031-3.503.077c-2.278.065-4.436.145-6.428.242-.862-.039-.862-.087-1.696-.087-5.88 0-11.75-.09-16.787.055 0 .048-2.522.024-1.681.128l-7.978-.04a693.608 693.608 0 00-7.974-.032c-2.18-.012-4.36.038-6.541.108-18.023-.113-35.842-.415-55.263-1.045-2.423-.086-5.005-.2-7.61-.316l-7.66-.366 22.107.63c7.288.335 14.268.598 20.024.537h4.01c-8.1-.152-16.138-.337-24.034-.542l-13.03-.635h.262l10.26.29c6.479.313 12.71.55 18.062.569h5.973c-4.997-.093-9.96-.203-14.893-.328l-9.142-.242-5.754-.282h.604c1.696.03 6.408-.323 3.9-.574l-10.294-.43-5.194-.222-2.493-.106-1.212-.053c-.412-.02-.833-.046-1.264-.09a8.685 8.685 0 01-2.665-.665A5.252 5.252 0 012 43.933a6.794 6.794 0 01-.904-2.237 16.108 16.108 0 01-.276-1.722c-.104-.954-.192-1.707-.242-2.228l-.056-.596c0-.067 0-.118-.015-.154a.151.151 0 010-.053c.03-.213.19 1.008.446 2.944.068.482.143 1.064.29 1.71a6.84 6.84 0 00.851 2.129c.241.386.536.736.875 1.04.343.302.723.559 1.131.765a7.492 7.492 0 002.362.685c.705.09 1.415.14 2.125.152l1.917.065 3.365.116c1.938.068 3.171.102 2.963.077l-3.714-.24c1.177.018 2.33.04 3.392.047 2.514.07 5.865.275 7.549.259 5.877-.025 12.581.357 19.295.405 4.203.014 9.233 0 14.267-.046 0-.094 2.522.027 1.684-.092 4.732.145 10.207.273 12.242.049h1.657c1.968.055 3.787.089 5.522.106 1.735.017 3.392 0 5.008 0 3.251-.017 6.41-.09 9.981-.123 2.455 0 4.95.02 7.51.048-1.678-.02-4.19-.094-5.872-.068l-1.647.02-18.476-.041-2.035.06-1.313-.039c-.107.017-.22.032-.344.046-2.908 0-5.982-.036-8.965-.067-2.982-.032-5.848-.075-8.315-.085-9.308-.128-19.222-.584-28.702-1.035l7.026.179 6.917.144-16.366-.436-2.405-.116-5.032-.241 4.659.27-9.265-.28-3.15-.123a13.22 13.22 0 01-1.613-.167 5.985 5.985 0 01-1.604-.482 3.925 3.925 0 01-1.376-1.057 4.684 4.684 0 01-.785-1.533c-.337-1.08-.402-2.157-.533-3.204a221.891 221.891 0 01-1.061-12.75 207.452 207.452 0 01-.3-12.834c.026-2.126 0-4.295.411-6.474.11-.545.252-1.084.427-1.612.18-.533.406-1.05.673-1.547.277-.502.612-.97.998-1.394a6.53 6.53 0 01.633-.608c.116-.09.242-.172.35-.259l.178-.128.186-.11c-.15.119-.294.246-.431.38-.073.073-.153.143-.223.225l-.218.258a6.14 6.14 0 00-.562.601c-.082.106-.157.215-.242.324a9.019 9.019 0 00-.95 1.752c-.375.978-.63 1.998-.758 3.037a26.978 26.978 0 00-.211 3.039 151.946 151.946 0 00-.015 2.963c.015 3.907.155 7.625.424 10.96-.186-4.715-.315-7.978-.278-12.54.026 0 .068-.04.08.34-.045-1.557.01-3.115.167-4.665.095-.83.268-1.649.516-2.447A8.528 8.528 0 012.93 3.01 9.564 9.564 0 001.9 6.297a22.542 22.542 0 00-.334 2.977c-.06 1.14-.053 2.39-.044 3.642 0 5.415.153 10.673.485 15.9.162 2.61.375 5.22.64 7.827.067.654.138 1.306.206 1.96.067.654.135 1.317.242 1.95a6.45 6.45 0 00.501 1.785c.245.533.64.983 1.137 1.296.462.284.972.484 1.504.591.56.117 1.126.19 1.696.222l3.564.191 7.125.362c4.74.235 9.45.446 14.135.635l-13.442-.391-6.42-.203-3.15-.099c-1.056-.041-2.103-.031-3.132-.174zM36.612 2.713l2.639-.072-.398-.032c-.816 0-1.616.046-2.24.104zm19.624 0c-5.758-.065-13.34.07-20.668.157-.041.014-.065.027-.065.039 6.144.021 13.705-.121 20.731-.205l.002.01zm22.857.95s.012.015.012.023l-.012-.022zm61.426 39.438c.143-.35.255-.712.337-1.081l.048-.275c0-.09.02-.181.032-.27.014-.215.031-.43.048-.647l.1-1.332c.034-.452.058-.903.09-1.364.113-1.838.215-3.757.285-5.73.155-3.949.213-8.113.199-12.28.024-2.506-.17-4.998-.17-8.34a905.83 905.83 0 00-.05-2.86v-.323c0-.107 0-.222-.015-.295a4.395 4.395 0 00-.29-1.375 4.61 4.61 0 00-2.387-2.558 4.494 4.494 0 011.415 1.219 4.105 4.105 0 00-2.498-1.465 3.198 3.198 0 00-.335-.05l-.332-.023-.877-.016-1.737-.025a224.735 224.735 0 01-7.532-.21c0 .046-.84.116-1.679.092-4.182-.087-8.373-.268-11.724-.241l-6.173-.058a262.8 262.8 0 00-5.55 0c-.841-.012-2.515.11-4.194.137h-6.132l.242.042c1.665.014 3.356.019 5.042 0l7.98-.044 7.954.036 9.28.133 4.544.08c1.507.022 3.006.052 4.497.089l4.456.101 1.11.024h.518c.13.012.264.015.395.03a4.18 4.18 0 011.49.482 4.31 4.31 0 012.008 2.367c.085.253.148.512.189.775.021.132.034.265.039.398.014.113.014.318.02.5l.04 2.19c.054 2.503.153 5.01.187 7.508a262.38 262.38 0 01-.041 11.759c-.1 3.841-.267 7.374-.344 9.857 0 .207-.027.468-.046.753-.02.285-.042.622-.073.856-.08.488-.203.967-.366 1.434zm-6.725 6.127c1.238 0 2.47-.167 3.663-.497a6.17 6.17 0 001.885-.954c.148-.11.29-.228.424-.354.133-.123.242-.242.348-.35.221-.242.432-.483.628-.724a10.523 10.523 0 001.841-3.378c.054-.157.092-.326.136-.483.044-.157.073-.335.097-.51l.034-.262c0-.092.014-.15.022-.225l.038-.434c.049-.577.11-1.151.15-1.728.366-4.602.534-9.138.65-13.308.092-3.357.05-9.845-.114-15.065-.022-.651-.041-1.284-.063-1.89l-.015-.446v-.222c0-.072-.012-.161-.019-.24-.017-.16-.022-.32-.048-.484-.027-.164-.056-.306-.085-.456a6.158 6.158 0 00-1.335-2.688 3.998 3.998 0 00-1.197-1.004c-.225-.091-.196 0 .082.331a5.3 5.3 0 011.423 1.513c.53.84.842 1.797.908 2.787.03.287.027.536.039.81.012.276.017.549.027.833l.046 1.77c.029 1.223.053 2.53.067 3.899.066 5.48.015 11.959-.3 17.999l-.13 2.242c-.054.724-.105 1.464-.156 2.171-.05.707-.114 1.42-.18 2.107-.033.345-.065.683-.099 1.02a27.29 27.29 0 01-.048.5c0 .08-.02.176-.031.27-.013.095-.025.189-.044.278a7.795 7.795 0 01-.683 1.988c-.28.575-.613 1.122-.994 1.636a10.98 10.98 0 01-1.153 1.34 5.151 5.151 0 01-1.432.996c-.824.365-1.7.603-2.597.705-.727.096-1.274.133-1.657.18-.383.05-.594.088-.62.14-.027.054.116.11.492.187zm-70.018.077c3.518.014 6.917.043 10.902.125l-10.902-.125zm-56.642-1.82h-.033c-.58 0-1.158-.045-1.73-.135.298.07.608.128.88.17a18.48 18.48 0 001.72.14l1.487.045 2.953.09 5.965.18c1.635.017 3.196.027 4.506 0l-7.278-.36c-2.946-.04-4.98-.084-6.356-.124.997-.184-.033-.241-1.067-.223-.654 0-1.393-.023-1.577 0-.09 0-.039.064.228.147.1.026.201.05.302.07zm5.87-44.62c6.63.35-1.538.512-4.893.977-1.626-.033-2.532-.12-1.982-.24 0-.04.838-.04 1.677-.04 0-.094-.839-.192 0-.282l3.355.017c.708-.152.24-.313.068-.472l-.039.002c-.01-.028-.024-.06-.024-.087h1.514l-1.036.06 1.142.054c-.35-.152.241-.294.682-.44l4.411.017c-1.332.209-2.691.342-4.875.434zM87.037 48.45c.537.048 1.074.102 1.609.102-3.618.068-7.713.024-11.961-.073a1104.45 1104.45 0 01-18.845-.294l-2.747-.014c-1.975-.027-3.683-.09-5.33-.17l-.746-.016h.43c-2.465-.116-4.835-.285-7.779-.418l-.835.017v-.142c7.556-.043 16.77.485 25.165.565 10.91.096 22.655.268 33.557.055l-.01-.012c1.68-.029 4.2.044 5.89.06-5.877.095-10.907.268-16.78.317l-1.618.023zm-2.39.024c-2.054.016-4.156.019-6.291.012l1.044.025c1.866.064 3.723.033 5.247-.037zm-51.892-2.84l2.256.11-1.68-.068-.576-.041zm-18.59-43.46l-.392.073a.225.225 0 00-.092-.073h.484zM2.701 5.635c-.3.97-.489 1.97-.562 2.98a33.91 33.91 0 00-.104 2.925c-.005 1.97.01 3.958.038 6.313-.087-1.665-.135-3.42-.152-5.253-.017-1.834-.041-3.717.283-5.565.156-.919.438-1.812.839-2.654.204-.416.448-.812.726-1.183a3.37 3.37 0 01.218-.26c.071-.085.147-.166.228-.242a5.634 5.634 0 011.713-1.124c.22-.073.431-.172.659-.222.114-.027.225-.06.337-.087l.344-.056a2.35 2.35 0 01.339-.036c.116-.005.23-.02.344-.02.227.004.454.022.678.056a2.7 2.7 0 01.335.06l.322.092c.103.037.204.08.303.128l.15.065c.048.025.094.053.138.085a2.86 2.86 0 00-.484-.155c-.165-.048-.352-.055-.526-.089-1.374-.292-2.97.17-4.08 1.045a4.413 4.413 0 00-.744.724 6.25 6.25 0 00-.589.878 8.21 8.21 0 00-.768 1.919c.088-.338.037-.31.015-.326.034-.116.077-.234.123-.357.047-.123.085-.244.143-.365-.3.633-.293.724-.266.724zm7.794-3.897c.01-.007.034-.002.114.065.155.15.292.32.407.502a3.625 3.625 0 00-.521-.567zM99.89 46.68l-12.584-.267c7.273-.102 17.049-.022 26.58-.187-2.246.127-4.48.246-6.784.327-2.304.08-4.68.149-7.212.127zm35.936-1.214c-.37.112-.744.193-1.122.242-.542.057-1.121.057-1.754.057l-1.863.025-3.73.055-7.5.08c2.465-.106 4.987-.182 7.679-.25 1.344-.028 2.718-.056 4.172-.056h2.18c.648.008 1.296-.043 1.938-.153zm-6.563.449c-2.355.124-4.853.21-7.435.291-2.583.082-5.248.135-7.945.167l7.341-.306c2.527-.081 5.173-.152 8.039-.152z"/></svg>