<svg viewBox="0 0 193 369" xmlns="http://www.w3.org/2000/svg"><defs><linearGradient x1="-364979%" y1="-334322%" x2="-138331%" y2="-334322%" id="q"><stop stop-color="#008596" offset="0%"/><stop stop-color="#008C9E" offset="13%"/><stop stop-color="#01A9BF" offset="69%"/><stop stop-color="#01B4CB" offset="99%"/></linearGradient><linearGradient x1="-122.183%" y1="74.597%" x2="28.215%" y2="49.38%" id="a"><stop stop-color="#911456" offset="58%"/><stop stop-color="#A81863" offset="71%"/><stop stop-color="#E22284" offset="99%"/></linearGradient><linearGradient x1="-426562.173%" y1="-252914%" x2="-310133.658%" y2="-331564%" id="c"><stop stop-color="#911456" offset="0%"/><stop stop-color="#B51A6B" offset="38%"/><stop stop-color="#D6207D" offset="78%"/><stop stop-color="#E22284" offset="99%"/></linearGradient><linearGradient x1="41.616%" y1="474.228%" x2="53.589%" y2="-58.553%" id="d"><stop stop-color="#809829" offset="58%"/><stop stop-color="#839C28" offset="59%"/><stop stop-color="#94AF26" offset="66%"/><stop stop-color="#9FBD24" offset="73%"/><stop stop-color="#A6C522" offset="82%"/><stop stop-color="#A8C722" offset="99%"/></linearGradient><linearGradient x1="35.538%" y1="248.838%" x2="50.155%" y2="33.529%" id="e"><stop stop-color="#809829" offset="0%"/><stop stop-color="#95B125" offset="37%"/><stop stop-color="#A3C123" offset="72%"/><stop stop-color="#A8C722" offset="99%"/></linearGradient><linearGradient x1="-271.387%" y1="-88.726%" x2="3285.77%" y2="1380.591%" id="f"><stop stop-color="#008596" offset="0%"/><stop stop-color="#008B9C" offset="3%"/><stop stop-color="#01A9BE" offset="21%"/><stop stop-color="#01B4CB" offset="31%"/></linearGradient><linearGradient x1="-364168%" y1="-346277%" x2="-147781%" y2="-346277%" id="g"><stop stop-color="#008596" offset="0%"/><stop stop-color="#008B9C" offset="3%"/><stop stop-color="#01A9BE" offset="21%"/><stop stop-color="#01B4CB" offset="31%"/></linearGradient><linearGradient x1="-16.206%" y1="12.612%" x2="1001.725%" y2="466.107%" id="h"><stop stop-color="#008596" offset="0%"/><stop stop-color="#008C9E" offset="13%"/><stop stop-color="#01A9BF" offset="69%"/><stop stop-color="#01B4CB" offset="99%"/></linearGradient><linearGradient x1="-366206%" y1="-311708%" x2="-148243%" y2="-311708%" id="i"><stop stop-color="#008596" offset="0%"/><stop stop-color="#008C9E" offset="13%"/><stop stop-color="#01A9BF" offset="69%"/><stop stop-color="#01B4CB" offset="99%"/></linearGradient><linearGradient x1="-463813.462%" y1="-251590%" x2="-337677.566%" y2="-329585%" id="j"><stop stop-color="#911456" offset="0%"/><stop stop-color="#B51A6B" offset="38%"/><stop stop-color="#D6207D" offset="78%"/><stop stop-color="#E22284" offset="99%"/></linearGradient><linearGradient x1="-364047%" y1="-345323%" x2="-113111%" y2="-345323%" id="k"><stop stop-color="#008596" offset="0%"/><stop stop-color="#008C9E" offset="13%"/><stop stop-color="#01A9BF" offset="69%"/><stop stop-color="#01B4CB" offset="99%"/></linearGradient><linearGradient x1="-364047%" y1="-345323%" x2="-113111%" y2="-345323%" id="l"><stop stop-color="#911456" offset="0%"/><stop stop-color="#B51A6B" offset="38%"/><stop stop-color="#D6207D" offset="78%"/><stop stop-color="#E22284" offset="99%"/></linearGradient><linearGradient x1="-465091.877%" y1="-271233%" x2="-341283.11%" y2="-349229%" id="m"><stop stop-color="#911456" offset="0%"/><stop stop-color="#B51A6B" offset="38%"/><stop stop-color="#D6207D" offset="78%"/><stop stop-color="#E22284" offset="99%"/></linearGradient><linearGradient x1="-364047%" y1="-372797%" x2="-113111%" y2="-372797%" id="n"><stop stop-color="#008596" offset="0%"/><stop stop-color="#008C9E" offset="13%"/><stop stop-color="#01A9BF" offset="69%"/><stop stop-color="#01B4CB" offset="99%"/></linearGradient><linearGradient x1="-364047%" y1="-372797%" x2="-113111%" y2="-372797%" id="o"><stop stop-color="#911456" offset="0%"/><stop stop-color="#B51A6B" offset="38%"/><stop stop-color="#D6207D" offset="78%"/><stop stop-color="#E22284" offset="99%"/></linearGradient><linearGradient x1="-438415.185%" y1="-245057%" x2="-317330.599%" y2="-323935%" id="p"><stop stop-color="#911456" offset="0%"/><stop stop-color="#B51A6B" offset="38%"/><stop stop-color="#D6207D" offset="78%"/><stop stop-color="#E22284" offset="99%"/></linearGradient><linearGradient x1="-263.308%" y1="79.564%" x2="78.474%" y2="43.826%" id="b"><stop stop-color="#911456" offset="0%"/><stop stop-color="#B51A6B" offset="38%"/><stop stop-color="#D6207D" offset="78%"/><stop stop-color="#E22284" offset="99%"/></linearGradient><linearGradient x1="-364979%" y1="-334322%" x2="-138331%" y2="-334322%" id="r"><stop stop-color="#911456" offset="0%"/><stop stop-color="#B51A6B" offset="38%"/><stop stop-color="#D6207D" offset="78%"/><stop stop-color="#E22284" offset="99%"/></linearGradient><linearGradient x1="-508255%" y1="-178692.771%" x2="-367815%" y2="-236318.218%" id="s"><stop stop-color="#911456" offset="0%"/><stop stop-color="#B51A6B" offset="38%"/><stop stop-color="#D6207D" offset="78%"/><stop stop-color="#E22284" offset="99%"/></linearGradient><linearGradient x1="-364974%" y1="-326058%" x2="-138327%" y2="-326058%" id="t"><stop stop-color="#008596" offset="0%"/><stop stop-color="#008C9E" offset="13%"/><stop stop-color="#01A9BF" offset="69%"/><stop stop-color="#01B4CB" offset="99%"/></linearGradient><linearGradient x1="-364974%" y1="-326058%" x2="-138327%" y2="-326058%" id="u"><stop stop-color="#911456" offset="0%"/><stop stop-color="#B51A6B" offset="38%"/><stop stop-color="#D6207D" offset="78%"/><stop stop-color="#E22284" offset="99%"/></linearGradient><linearGradient x1="-511767%" y1="-210243.338%" x2="-371327%" y2="-276350.927%" id="v"><stop stop-color="#911456" offset="0%"/><stop stop-color="#B51A6B" offset="38%"/><stop stop-color="#D6207D" offset="78%"/><stop stop-color="#E22284" offset="99%"/></linearGradient><linearGradient x1="-364979%" y1="-336409%" x2="-138331%" y2="-336409%" id="w"><stop stop-color="#008596" offset="0%"/><stop stop-color="#008C9E" offset="13%"/><stop stop-color="#01A9BF" offset="69%"/><stop stop-color="#01B4CB" offset="99%"/></linearGradient><linearGradient x1="-364979%" y1="-336409%" x2="-138331%" y2="-336409%" id="x"><stop stop-color="#911456" offset="0%"/><stop stop-color="#B51A6B" offset="38%"/><stop stop-color="#D6207D" offset="78%"/><stop stop-color="#E22284" offset="99%"/></linearGradient><linearGradient x1="-254141%" y1="-66344.238%" x2="-303349%" y2="-134334.156%" id="y"><stop stop-color="#809829" offset="0%"/><stop stop-color="#95B125" offset="37%"/><stop stop-color="#A3C123" offset="72%"/><stop stop-color="#A8C722" offset="99%"/></linearGradient><linearGradient x1="-364775%" y1="-278067%" x2="-154092%" y2="-278067%" id="z"><stop stop-color="#008596" offset="0%"/><stop stop-color="#008C9E" offset="13%"/><stop stop-color="#01A9BF" offset="69%"/><stop stop-color="#01B4CB" offset="99%"/></linearGradient><linearGradient x1="-294735%" y1="-133750%" x2="-294735%" y2="-290942%" id="A"><stop stop-color="#809829" offset="0%"/><stop stop-color="#95B125" offset="37%"/><stop stop-color="#A3C123" offset="72%"/><stop stop-color="#A8C722" offset="99%"/></linearGradient><linearGradient x1="-294735%" y1="-133750%" x2="-294735%" y2="-290942%" id="B"><stop stop-color="#008596" offset="0%"/><stop stop-color="#008C9E" offset="13%"/><stop stop-color="#01A9BF" offset="69%"/><stop stop-color="#01B4CB" offset="99%"/></linearGradient><linearGradient x1="-282380%" y1="-79641.735%" x2="-331721%" y2="-167930.553%" id="C"><stop stop-color="#809829" offset="0%"/><stop stop-color="#95B125" offset="37%"/><stop stop-color="#A3C123" offset="72%"/><stop stop-color="#A8C722" offset="99%"/></linearGradient><linearGradient x1="-368041%" y1="-282918%" x2="-152101%" y2="-282918%" id="D"><stop stop-color="#008596" offset="0%"/><stop stop-color="#008C9E" offset="13%"/><stop stop-color="#01A9BF" offset="69%"/><stop stop-color="#01B4CB" offset="99%"/></linearGradient><linearGradient x1="-337143%" y1="-124820%" x2="-337143%" y2="-289057%" id="E"><stop stop-color="#809829" offset="0%"/><stop stop-color="#95B125" offset="37%"/><stop stop-color="#A3C123" offset="72%"/><stop stop-color="#A8C722" offset="99%"/></linearGradient><linearGradient x1="-337143%" y1="-124820%" x2="-337143%" y2="-289057%" id="F"><stop stop-color="#008596" offset="0%"/><stop stop-color="#008C9E" offset="13%"/><stop stop-color="#01A9BF" offset="69%"/><stop stop-color="#01B4CB" offset="99%"/></linearGradient></defs><g fill="none"><path fill="#FFF" opacity=".5" d="M11.755 118.86H179.71v137.727H11.755z"/><path d="M74.324 196.273l-.215-.284-2.758-3.665a238.35 238.35 0 01-71.35 5.544v56.837c22.633-8.5 47.352-13.47 72.708-14.4a129.678 129.678 0 011.615-44.032z" fill="#686867"/><path d="M192.914.093H0v96.409c3.205.873 6.4 1.815 9.584 2.826 29.334 9.35 54.232 23.651 73.787 41.184h6.32l5.233 6.771c21.922-33.562 56.933-58.982 97.99-73.99V.094z" fill="url(#a)"/><path d="M32.355 140.503h51.018c-19.555-17.53-44.457-31.838-73.788-41.184A229.594 229.594 0 000 96.493v101.366a238.35 238.35 0 0071.35-5.544l-25.13-33.387-13.865-18.425z" fill="#686867"/><path d="M32.355 140.503h51.018c-19.555-17.53-44.457-31.838-73.788-41.184A229.594 229.594 0 000 96.493v101.366a238.35 238.35 0 0071.35-5.544l-25.13-33.387-13.865-18.425z" fill="url(#b)"/><path d="M32.355 140.503h51.018c-19.555-17.53-44.457-31.838-73.788-41.184A229.594 229.594 0 000 96.493v101.366a238.35 238.35 0 0071.35-5.544l-25.13-33.387-13.865-18.425z" fill="#686867" opacity=".32"/><path d="M71.829 162.41l-5.028-6.575h12.227l2.912 3.892 3.379 4.504a164.08 164.08 0 011.565-3.146 144.811 144.811 0 012.683-4.98l-.168-.218-5.037-6.563H51.025l10.054 13.415 15.876 21.192.406.537a141.89 141.89 0 013.547-10.181l-9.08-11.877z" fill="#686867"/><path d="M71.829 162.41l-5.028-6.575h12.227l2.912 3.892 3.379 4.504a164.08 164.08 0 011.565-3.146 144.811 144.811 0 012.683-4.98l-.168-.218-5.037-6.563H51.025l10.054 13.415 15.876 21.192.406.537a141.89 141.89 0 013.547-10.181l-9.08-11.877z" fill="url(#c)"/><path d="M71.829 162.41l-5.028-6.575h12.227l2.912 3.892 3.379 4.504a164.08 164.08 0 011.565-3.146 144.811 144.811 0 012.683-4.98l-.168-.218-5.037-6.563H51.025l10.054 13.415 15.876 21.192.406.537a141.89 141.89 0 013.547-10.181l-9.08-11.877z" fill="#686867" opacity=".32"/><path d="M108.532 316.659c-14.608 21.258-34.9 38.901-58.732 52.239h133.194c-30.615-12.755-55.82-30.861-74.462-52.24z" fill="url(#d)"/><path d="M72.709 240.306c-25.356.93-50.082 5.903-72.707 14.4v114.192H49.8c23.832-13.338 44.124-30.981 58.732-52.24-19.736-22.633-32.126-48.916-35.823-76.352z" fill="#686867"/><path d="M72.709 240.306c-25.356.93-50.082 5.903-72.707 14.4v114.192H49.8c23.832-13.338 44.124-30.981 58.732-52.24-19.736-22.633-32.126-48.916-35.823-76.352z" fill="url(#e)"/><path d="M72.709 240.306c-25.356.93-50.082 5.903-72.707 14.4v114.192H49.8c23.832-13.338 44.124-30.981 58.732-52.24-19.736-22.633-32.126-48.916-35.823-76.352z" fill="#686867" opacity=".19"/><path d="M116.817 182.524l1.825-2.45 5.534-7.431a198.062 198.062 0 01-10.086 5.028 138.167 138.167 0 012.727 4.853z" fill="url(#f)"/><path d="M192.914 106.293c-10.936 20.702-27.105 38.447-46.802 52.692l-8.473 11.367-12.075 16.205-4.096 5.495c7.535 17.081 11.308 35.236 10.877 53.64a233.817 233.817 0 0119.97 5.366c14.74 4.7 28.313 10.701 40.602 17.765l-.003-162.53z" fill="url(#g)"/><path d="M96.423 209.917l20.39-27.393a142.627 142.627 0 00-2.727-4.853 208.925 208.925 0 01-7.334 3.232l-10.34 13.674-5.843-7.64a225.4 225.4 0 01-9.258 2.822l15.112 20.158z" fill="#686867"/><path d="M96.423 209.917l20.39-27.393a142.627 142.627 0 00-2.727-4.853 208.925 208.925 0 01-7.334 3.232l-10.34 13.674-5.843-7.64a225.4 225.4 0 01-9.258 2.822l15.112 20.158z" fill="url(#h)"/><path d="M96.423 209.917l20.39-27.393a142.627 142.627 0 00-2.727-4.853 208.925 208.925 0 01-7.334 3.232l-10.34 13.674-5.843-7.64a225.4 225.4 0 01-9.258 2.822l15.112 20.158z" fill="#686867" opacity=".12"/><path d="M74.324 196.273a129.678 129.678 0 00-1.61 44.033 236.12 236.12 0 0159.634 5.38c.431-18.405-3.341-36.558-10.877-53.64l-25.04 33.597-22.107-29.37z" fill="#686867"/><path d="M74.324 196.273a129.678 129.678 0 00-1.61 44.033 236.12 236.12 0 0159.634 5.38c.431-18.405-3.341-36.558-10.877-53.64l-25.04 33.597-22.107-29.37z" fill="url(#i)"/><path d="M74.324 196.273a129.678 129.678 0 00-1.61 44.033 236.12 236.12 0 0159.634 5.38c.431-18.405-3.341-36.558-10.877-53.64l-25.04 33.597-22.107-29.37z" fill="#686867" opacity=".12"/><path d="M124.176 172.643l5.037-6.765 12.04-16.167h-10.89l-10.375 13.711-6.639 8.765-1.43 1.903a149.56 149.56 0 012.176 3.577c3.42-1.586 6.78-3.26 10.08-5.024z" fill="url(#j)"/><path d="M124.176 172.643l5.037-6.765 12.04-16.167h-10.89l-10.375 13.711-6.639 8.765-1.43 1.903a149.56 149.56 0 012.176 3.577c3.42-1.586 6.78-3.26 10.08-5.024z" fill="url(#k)"/><path d="M124.176 172.643l5.037-6.765 12.04-16.167h-10.89l-10.375 13.711-6.639 8.765-1.43 1.903a149.56 149.56 0 012.176 3.577c3.42-1.586 6.78-3.26 10.08-5.024z" fill="url(#l)" opacity=".54"/><path d="M192.914 73.294c-41.053 15.007-76.068 40.423-97.988 73.98l1.86 2.404 6.24 8.082-1.564 1.726c1.683 2.08 3.3 4.19 4.852 6.33l1.99-2.655 1.5-2.003 15.449-20.652h34.637l-13.773 18.482c19.692-14.248 35.861-31.993 46.797-52.695v-33z" fill="url(#m)"/><path d="M192.914 73.294c-41.053 15.007-76.068 40.423-97.988 73.98l1.86 2.404 6.24 8.082-1.564 1.726c1.683 2.08 3.3 4.19 4.852 6.33l1.99-2.655 1.5-2.003 15.449-20.652h34.637l-13.773 18.482c19.692-14.248 35.861-31.993 46.797-52.695v-33z" fill="url(#n)"/><path d="M192.914 73.294c-41.053 15.007-76.068 40.423-97.988 73.98l1.86 2.404 6.24 8.082-1.564 1.726c1.683 2.08 3.3 4.19 4.852 6.33l1.99-2.655 1.5-2.003 15.449-20.652h34.637l-13.773 18.482c19.692-14.248 35.861-31.993 46.797-52.695v-33z" fill="url(#o)" opacity=".54"/><path d="M111.913 174.094l-5.15 6.809a217.073 217.073 0 007.334-3.232 166.68 166.68 0 00-2.184-3.577z" fill="#686867"/><path d="M111.913 174.094l-5.15 6.809a217.073 217.073 0 007.334-3.232 166.68 166.68 0 00-2.184-3.577z" fill="url(#p)"/><path d="M111.913 174.094l-5.15 6.809a217.073 217.073 0 007.334-3.232 166.68 166.68 0 00-2.184-3.577z" fill="url(#q)"/><path d="M111.913 174.094l-5.15 6.809a217.073 217.073 0 007.334-3.232 166.68 166.68 0 00-2.184-3.577z" fill="url(#r)" opacity=".54"/><path d="M90.58 186.938l-8.35-10.91-1.322-1.729a138.08 138.08 0 00-3.547 10.181l3.96 5.284a237.617 237.617 0 009.258-2.826z" fill="#686867"/><path d="M90.58 186.938l-8.35-10.91-1.322-1.729a138.08 138.08 0 00-3.547 10.181l3.96 5.284a237.617 237.617 0 009.258-2.826z" fill="url(#s)"/><path d="M90.58 186.938l-8.35-10.91-1.322-1.729a138.08 138.08 0 00-3.547 10.181l3.96 5.284a237.617 237.617 0 009.258-2.826z" fill="url(#t)"/><path d="M90.58 186.938l-8.35-10.91-1.322-1.729a138.08 138.08 0 00-3.547 10.181l3.96 5.284a237.617 237.617 0 009.258-2.826z" fill="url(#u)" opacity=".54"/><path d="M89.563 156.105a140.265 140.265 0 00-4.248 8.126l4.173 5.566 6.935 9.248 9.893-13.226a151.946 151.946 0 00-4.853-6.33l-5.04 5.56-6.86-8.944z" fill="#686867"/><path d="M89.563 156.105a140.265 140.265 0 00-4.248 8.126l4.173 5.566 6.935 9.248 9.893-13.226a151.946 151.946 0 00-4.853-6.33l-5.04 5.56-6.86-8.944z" fill="url(#v)"/><path d="M89.563 156.105a140.265 140.265 0 00-4.248 8.126l4.173 5.566 6.935 9.248 9.893-13.226a151.946 151.946 0 00-4.853-6.33l-5.04 5.56-6.86-8.944z" fill="url(#w)"/><path d="M89.563 156.105a140.265 140.265 0 00-4.248 8.126l4.173 5.566 6.935 9.248 9.893-13.226a151.946 151.946 0 00-4.853-6.33l-5.04 5.56-6.86-8.944z" fill="url(#x)" opacity=".54"/><path d="M192.914 268.82c-12.288-7.064-25.86-13.058-40.603-17.766a224.38 224.38 0 00-19.97-5.366c-.431 18.41-5.055 37.07-14.341 55.157a144.266 144.266 0 01-9.47 15.815c18.642 21.378 43.848 39.485 74.462 52.24h9.92l.002-100.08z" fill="url(#y)"/><path d="M192.914 268.82c-12.288-7.064-25.86-13.058-40.603-17.766a224.38 224.38 0 00-19.97-5.366c-.431 18.41-5.055 37.07-14.341 55.157a144.266 144.266 0 01-9.47 15.815c18.642 21.378 43.848 39.485 74.462 52.24h9.92l.002-100.08z" fill="url(#z)"/><path d="M192.914 268.82c-12.288-7.064-25.86-13.058-40.603-17.766a224.38 224.38 0 00-19.97-5.366c-.431 18.41-5.055 37.07-14.341 55.157a144.266 144.266 0 01-9.47 15.815c18.642 21.378 43.848 39.485 74.462 52.24h9.92l.002-100.08z" fill="url(#A)"/><path d="M192.914 268.82c-12.288-7.064-25.86-13.058-40.603-17.766a224.38 224.38 0 00-19.97-5.366c-.431 18.41-5.055 37.07-14.341 55.157a144.266 144.266 0 01-9.47 15.815c18.642 21.378 43.848 39.485 74.462 52.24h9.92l.002-100.08z" fill="url(#B)" opacity=".51"/><path d="M72.709 240.306c3.697 27.436 16.087 53.719 35.823 76.353a144.266 144.266 0 009.47-15.807c9.286-18.087 13.91-36.746 14.34-55.157a236.12 236.12 0 00-59.633-5.389z" fill="#686867"/><path d="M72.709 240.306c3.697 27.436 16.087 53.719 35.823 76.353a144.266 144.266 0 009.47-15.807c9.286-18.087 13.91-36.746 14.34-55.157a236.12 236.12 0 00-59.633-5.389z" fill="url(#C)"/><path d="M72.709 240.306c3.697 27.436 16.087 53.719 35.823 76.353a144.266 144.266 0 009.47-15.807c9.286-18.087 13.91-36.746 14.34-55.157a236.12 236.12 0 00-59.633-5.389z" fill="url(#D)"/><path d="M72.709 240.306c3.697 27.436 16.087 53.719 35.823 76.353a144.266 144.266 0 009.47-15.807c9.286-18.087 13.91-36.746 14.34-55.157a236.12 236.12 0 00-59.633-5.389z" fill="url(#E)"/><path d="M72.709 240.306c3.697 27.436 16.087 53.719 35.823 76.353a144.266 144.266 0 009.47-15.807c9.286-18.087 13.91-36.746 14.34-55.157a236.12 236.12 0 00-59.633-5.389z" fill="url(#F)" opacity=".51"/><path d="M72.709 240.306c3.697 27.436 16.087 53.719 35.823 76.353a144.266 144.266 0 009.47-15.807c9.286-18.087 13.91-36.746 14.34-55.157a236.12 236.12 0 00-59.633-5.389z" fill="#686867" opacity=".19"/></g></svg>